<svg version="1.1" id="Layer_1" xmlns="http://www.w3.org/2000/svg" xmlns:xlink="http://www.w3.org/1999/xlink" x="0px" y="0px"
	 width="100%" viewBox="0 0 1024 1024" enable-background="new 0 0 1024 1024" xml:space="preserve">
<path fill="#000000" opacity="1.000000" stroke="none" 
	d="
M582.000000,1025.000000 
	C388.000000,1025.000000 194.500000,1025.000000 1.000000,1025.000000 
	C1.000000,683.666687 1.000000,342.333344 1.000000,1.000000 
	C342.333344,1.000000 683.666687,1.000000 1025.000000,1.000000 
	C1025.000000,342.333344 1025.000000,683.666687 1025.000000,1025.000000 
	C877.500000,1025.000000 730.000000,1025.000000 582.000000,1025.000000 
M180.090561,602.500000 
	C180.088959,652.823853 180.015030,703.147888 180.169785,753.471252 
	C180.191086,760.403015 180.828857,767.425110 182.062897,774.245850 
	C189.025803,812.731018 225.565536,842.999878 264.712830,843.000183 
	C430.850494,843.001465 596.988220,843.051575 763.125671,842.840881 
	C770.923401,842.830933 779.012878,841.426208 786.464050,839.077209 
	C821.694397,827.970886 845.830200,794.465454 845.842712,757.099731 
	C845.896851,594.794861 845.891235,432.490021 845.790283,270.185242 
	C845.786072,263.420258 845.301331,256.506439 843.870483,249.916016 
	C835.549927,211.593277 802.093811,182.011978 761.761292,182.007385 
	C597.123352,181.988602 432.485382,181.976044 267.847504,182.083755 
	C261.252747,182.088058 254.547272,182.784714 248.082718,184.093781 
	C209.410278,191.924942 180.096741,228.066315 180.094940,267.558411 
	C180.089890,378.872284 180.090775,490.186127 180.090561,602.500000 
M276.217041,179.992645 
	C268.823944,179.992645 261.430817,179.992645 254.037704,179.992645 
	C254.041321,180.233093 254.044952,180.473541 254.048569,180.713989 
	C427.654785,180.713989 601.260986,180.713989 774.066956,180.713989 
	C768.461060,179.558670 762.182190,178.264648 755.903320,176.970627 
	C755.799133,177.221207 755.694946,177.471771 755.590698,177.722351 
	C756.372314,178.383820 757.153870,179.045303 758.204407,179.934387 
	C751.660889,179.934387 745.657471,180.097214 739.666992,179.888153 
	C733.794495,179.683212 727.935303,178.777435 722.070129,178.776291 
	C716.567261,178.775208 711.071106,179.737549 705.559570,179.941833 
	C699.640198,180.161224 693.706421,179.991379 687.778992,179.991379 
	C687.791138,179.492828 687.803284,178.994278 687.815491,178.495728 
	C690.816467,178.488831 694.257935,180.246582 697.561584,176.028275 
	C692.536499,176.678970 688.827759,177.159225 685.119019,177.639465 
	C685.212708,177.787567 685.306396,177.935669 685.400085,178.083786 
	C681.186279,177.716843 676.972534,177.349899 672.758728,176.982956 
	C672.681152,177.272339 672.603577,177.561722 672.526001,177.851105 
	C673.360474,178.436646 674.194885,179.022171 675.429565,179.888580 
	C671.273621,179.888580 667.657776,179.888580 663.834473,179.888580 
	C663.970093,178.940109 664.090637,178.097015 664.305786,176.592972 
	C662.255127,177.951248 660.618530,179.963806 659.185791,179.827866 
	C651.928101,179.139206 644.307129,182.285126 637.346863,177.885544 
	C636.729492,177.495285 635.211975,178.176529 634.290955,178.684006 
	C631.330078,180.315628 628.579346,181.674545 626.045959,177.898834 
	C625.683472,177.358643 623.849426,177.410324 622.903687,177.755661 
	C621.679260,178.202759 620.731384,179.726181 619.542847,179.886856 
	C617.011108,180.229187 614.400879,179.991516 611.822815,179.991516 
	C611.842590,179.544739 611.862305,179.097961 611.882080,178.651184 
	C614.776123,178.651184 617.670227,178.651184 620.564270,178.651184 
	C620.546509,178.223816 620.528748,177.796463 620.510986,177.369095 
	C617.311768,177.369095 614.072144,177.065216 610.928528,177.483429 
	C609.051392,177.733154 607.330261,179.861740 605.529785,179.874863 
	C581.900269,180.047043 558.261353,179.647873 534.642456,180.177444 
	C526.127441,180.368362 517.732605,179.285126 509.156952,179.674210 
	C488.069855,180.630936 466.910278,179.984940 445.779877,180.001236 
	C443.043030,180.003342 440.262268,179.707901 437.577271,179.646942 
	C424.264404,179.344772 410.782959,182.185516 397.609528,178.154297 
	C396.287811,177.749832 394.633057,177.455887 393.404877,177.886475 
	C386.837067,180.189011 383.804932,180.588135 377.565247,179.225296 
	C380.447327,179.037399 382.701813,178.890427 385.733093,178.692795 
	C380.217102,174.738525 376.366455,179.834000 371.345459,180.041306 
	C372.805420,178.901382 373.602509,178.279037 375.349274,176.915176 
	C370.498322,178.334503 366.803711,179.415497 363.109131,180.496475 
	C362.972778,179.991425 362.836456,179.486389 362.700104,178.981339 
	C364.219940,178.747696 365.739777,178.514038 367.259613,178.280380 
	C363.987183,177.413834 360.720520,175.622925 358.007843,179.455933 
	C357.418701,180.288376 353.836731,179.002731 351.221405,178.634689 
	C350.086273,178.946472 348.289032,179.448898 346.481049,179.908936 
	C346.396912,179.930359 346.216339,179.572830 346.060699,179.365097 
	C347.323486,179.046860 348.507812,178.748383 349.692139,178.449905 
	C349.678955,178.187668 349.665771,177.925430 349.652618,177.663208 
	C347.450348,177.392639 345.248108,177.122070 342.712646,176.810562 
	C343.129395,177.855118 343.422150,178.408844 343.545959,178.998062 
	C343.588501,179.200607 343.199371,179.717712 343.023682,179.710236 
	C332.697266,179.271011 322.169983,181.828461 312.657867,178.509903 
	C308.566986,179.197083 304.895721,179.813766 301.224457,180.430450 
	C301.160156,180.128448 301.095886,179.826431 301.031586,179.524429 
	C301.922211,179.111496 302.812836,178.698578 304.163300,178.072449 
	C291.804626,175.784821 281.736847,176.706451 281.611877,179.992264 
	C280.113281,179.992264 278.613708,179.992264 276.217041,179.992645 
M179.000610,337.500000 
	C179.000610,310.740204 179.000610,283.980377 179.000610,257.220581 
	C178.778122,257.222565 178.555618,257.224548 178.333130,257.226501 
	C178.333130,428.071564 178.333130,598.916626 178.333130,769.761719 
	C178.555618,769.761597 178.778122,769.761536 179.000610,769.761475 
	C179.000610,626.007629 179.000610,482.253815 179.000610,337.500000 
M847.998169,383.500000 
	C847.998169,341.069183 847.998169,298.638367 847.998169,256.207581 
	C847.775452,256.208801 847.552734,256.210022 847.330017,256.211243 
	C847.330017,426.733612 847.330017,597.255981 847.330017,767.778381 
	C847.552979,767.778320 847.775940,767.778320 847.998901,767.778259 
	C847.998901,640.018799 847.998901,512.259399 847.998169,383.500000 
M730.501953,845.002441 
	C725.057251,845.002441 719.612488,845.002441 714.167786,845.002441 
	C714.177246,845.225281 714.186768,845.448120 714.196228,845.670959 
	C732.064087,845.670959 749.931885,845.670959 767.799744,845.670959 
	C767.799377,845.448120 767.798950,845.225281 767.798584,845.002441 
	C755.699402,845.002441 743.600281,845.002441 730.501953,845.002441 
M567.797424,845.001099 
	C566.195312,845.001099 564.593201,845.001099 562.991089,845.001099 
	C562.993103,845.245300 562.995178,845.489563 562.997253,845.733765 
	C579.656128,845.733765 596.315002,845.733765 612.973938,845.733765 
	C612.975342,845.489319 612.976807,845.244812 612.978271,845.000366 
	C598.226868,845.000366 583.475525,845.000366 567.797424,845.001099 
M414.500122,845.002441 
	C407.721985,845.002441 400.943848,845.002441 394.165710,845.002441 
	C394.173035,845.227051 394.180359,845.451721 394.187683,845.676331 
	C408.400146,845.676331 422.612579,845.676331 436.825012,845.676331 
	C436.825439,845.451660 436.825836,845.226929 436.826263,845.002258 
	C429.717499,845.002258 422.608765,845.002258 414.500122,845.002441 
M508.494141,845.001038 
	C501.380188,845.001038 494.266266,845.001038 487.152313,845.001038 
	C487.159302,845.227539 487.166290,845.454041 487.173279,845.680542 
	C499.060913,845.680542 510.948517,845.680542 522.836182,845.680542 
	C522.837585,845.454346 522.839050,845.228149 522.840454,845.001953 
	C518.390503,845.001953 513.940491,845.001953 508.494141,845.001038 
M473.605133,845.006226 
	C462.431763,845.006226 451.258392,845.006226 440.085052,845.006226 
	C451.361603,845.966309 462.632690,845.970032 473.903656,845.928345 
	C474.059631,845.927795 474.213470,845.356567 473.605133,845.006226 
M314.185669,845.002625 
	C313.477692,845.107727 312.769745,845.212769 312.061768,845.317871 
	C312.076538,845.440735 312.091309,845.563599 312.106110,845.686462 
	C321.354218,845.686462 330.602356,845.686462 339.850494,845.686462 
	C339.850739,845.458374 339.851013,845.230225 339.851288,845.002136 
	C331.580231,845.002136 323.309204,845.002136 314.185669,845.002625 
M645.448242,845.997559 
	C648.585144,845.997559 651.722046,845.997559 654.858948,845.997559 
	C654.851624,845.770996 654.844238,845.544434 654.836853,845.317871 
	C645.611450,845.317871 636.386047,845.317871 627.160645,845.317871 
	C627.160217,845.544495 627.159729,845.771179 627.159241,845.997803 
	C632.927612,845.997803 638.696045,845.997803 645.448242,845.997559 
M555.203125,845.997742 
	C556.809448,845.997742 558.415833,845.997742 560.022156,845.997742 
	C560.020264,845.752808 560.018372,845.507874 560.016479,845.262939 
	C551.681213,845.262939 543.345947,845.262939 535.010681,845.262939 
	C535.008606,845.507996 535.006531,845.752991 535.004456,845.998047 
	C541.428467,845.998047 547.852478,845.998047 555.203125,845.997742 
M558.915100,177.822311 
	C558.951843,177.663467 559.036865,177.495102 559.008118,177.349152 
	C558.989319,177.253693 558.806274,177.124176 558.695740,177.123154 
	C557.128418,177.108444 555.560852,177.113144 553.993408,177.113144 
	C553.985657,177.428329 553.977966,177.743530 553.970276,178.058716 
	C555.428345,178.058716 556.886353,178.058716 558.915100,177.822311 
M740.549988,177.499481 
	C741.646912,177.691925 742.743835,177.884384 743.840759,178.076828 
	C743.860840,177.729004 743.880981,177.381165 743.901123,177.033325 
	C742.963684,177.074448 742.026245,177.115555 740.549988,177.499481 
M738.521179,177.401657 
	C738.521179,177.401657 738.424866,177.571625 738.424866,177.571625 
	C738.424866,177.571625 738.608093,177.547592 738.521179,177.401657 
z"/>
<path fill="#FEFEFE" opacity="1.000000" stroke="none" 
	d="
M180.089935,602.000000 
	C180.090775,490.186127 180.089890,378.872284 180.094940,267.558411 
	C180.096741,228.066315 209.410278,191.924942 248.082718,184.093781 
	C254.547272,182.784714 261.252747,182.088058 267.847504,182.083755 
	C432.485382,181.976044 597.123352,181.988602 761.761292,182.007385 
	C802.093811,182.011978 835.549927,211.593277 843.870483,249.916016 
	C845.301331,256.506439 845.786072,263.420258 845.790283,270.185242 
	C845.891235,432.490021 845.896851,594.794861 845.842712,757.099731 
	C845.830200,794.465454 821.694397,827.970886 786.464050,839.077209 
	C779.012878,841.426208 770.923401,842.830933 763.125671,842.840881 
	C596.988220,843.051575 430.850494,843.001465 264.712830,843.000183 
	C225.565536,842.999878 189.025803,812.731018 182.062897,774.245850 
	C180.828857,767.425110 180.191086,760.403015 180.169785,753.471252 
	C180.015030,703.147888 180.088959,652.823853 180.089935,602.000000 
M815.999268,494.500000 
	C815.999268,420.340698 816.016174,346.181396 815.957581,272.022125 
	C815.954041,267.551758 815.599182,263.047119 814.983032,258.617493 
	C811.506836,233.625473 787.755981,213.011475 762.452698,213.007980 
	C597.468506,212.985168 432.484375,212.980042 267.500214,213.022003 
	C263.699982,213.022964 259.871185,213.452103 256.104370,214.009933 
	C233.676804,217.331299 213.488083,237.487137 211.087433,260.134460 
	C209.794296,272.333740 210.055054,284.724091 210.043808,297.028625 
	C209.968094,379.829834 210.009262,462.631165 210.008957,545.432434 
	C210.008713,615.565430 209.930038,685.698486 210.033630,755.831299 
	C210.081009,787.914185 235.567551,812.998474 267.728424,812.998840 
	C431.379425,813.000671 595.030396,813.000793 758.681396,812.999756 
	C790.802124,812.999512 815.996277,787.719055 815.997986,755.475098 
	C816.002441,668.816711 815.999268,582.158386 815.999268,494.500000 
z"/>
<path fill="#111C34" opacity="1.000000" stroke="none" 
	d="
M276.665588,179.992462 
	C278.613708,179.992264 280.113281,179.992264 281.611877,179.992264 
	C281.736847,176.706451 291.804626,175.784821 304.163300,178.072449 
	C302.812836,178.698578 301.922211,179.111496 301.031586,179.524429 
	C301.095886,179.826431 301.160156,180.128448 301.224457,180.430450 
	C304.895721,179.813766 308.566986,179.197083 312.657867,178.509903 
	C322.169983,181.828461 332.697266,179.271011 343.023682,179.710236 
	C343.199371,179.717712 343.588501,179.200607 343.545959,178.998062 
	C343.422150,178.408844 343.129395,177.855118 342.712646,176.810562 
	C345.248108,177.122070 347.450348,177.392639 349.652618,177.663208 
	C349.665771,177.925430 349.678955,178.187668 349.692139,178.449905 
	C348.507812,178.748383 347.323486,179.046860 346.060699,179.365097 
	C346.216339,179.572830 346.396912,179.930359 346.481049,179.908936 
	C348.289032,179.448898 350.086273,178.946472 351.221405,178.634689 
	C353.836731,179.002731 357.418701,180.288376 358.007843,179.455933 
	C360.720520,175.622925 363.987183,177.413834 367.259613,178.280380 
	C365.739777,178.514038 364.219940,178.747696 362.700104,178.981339 
	C362.836456,179.486389 362.972778,179.991425 363.109131,180.496475 
	C366.803711,179.415497 370.498322,178.334503 375.349274,176.915176 
	C373.602509,178.279037 372.805420,178.901382 371.345459,180.041306 
	C376.366455,179.834000 380.217102,174.738525 385.733093,178.692795 
	C382.701813,178.890427 380.447327,179.037399 377.565247,179.225296 
	C383.804932,180.588135 386.837067,180.189011 393.404877,177.886475 
	C394.633057,177.455887 396.287811,177.749832 397.609528,178.154297 
	C410.782959,182.185516 424.264404,179.344772 437.577271,179.646942 
	C440.262268,179.707901 443.043030,180.003342 445.779877,180.001236 
	C466.910278,179.984940 488.069855,180.630936 509.156952,179.674210 
	C517.732605,179.285126 526.127441,180.368362 534.642456,180.177444 
	C558.261353,179.647873 581.900269,180.047043 605.529785,179.874863 
	C607.330261,179.861740 609.051392,177.733154 610.928528,177.483429 
	C614.072144,177.065216 617.311768,177.369095 620.510986,177.369095 
	C620.528748,177.796463 620.546509,178.223816 620.564270,178.651184 
	C617.670227,178.651184 614.776123,178.651184 611.882080,178.651184 
	C611.862305,179.097961 611.842590,179.544739 611.822815,179.991516 
	C614.400879,179.991516 617.011108,180.229187 619.542847,179.886856 
	C620.731384,179.726181 621.679260,178.202759 622.903687,177.755661 
	C623.849426,177.410324 625.683472,177.358643 626.045959,177.898834 
	C628.579346,181.674545 631.330078,180.315628 634.290955,178.684006 
	C635.211975,178.176529 636.729492,177.495285 637.346863,177.885544 
	C644.307129,182.285126 651.928101,179.139206 659.185791,179.827866 
	C660.618530,179.963806 662.255127,177.951248 664.305786,176.592972 
	C664.090637,178.097015 663.970093,178.940109 663.834473,179.888580 
	C667.657776,179.888580 671.273621,179.888580 675.429565,179.888580 
	C674.194885,179.022171 673.360474,178.436646 672.526001,177.851105 
	C672.603577,177.561722 672.681152,177.272339 672.758728,176.982956 
	C676.972534,177.349899 681.186279,177.716843 685.400085,178.083786 
	C685.306396,177.935669 685.212708,177.787567 685.119019,177.639465 
	C688.827759,177.159225 692.536499,176.678970 697.561584,176.028275 
	C694.257935,180.246582 690.816467,178.488831 687.815491,178.495728 
	C687.803284,178.994278 687.791138,179.492828 687.778992,179.991379 
	C693.706421,179.991379 699.640198,180.161224 705.559570,179.941833 
	C711.071106,179.737549 716.567261,178.775208 722.070129,178.776291 
	C727.935303,178.777435 733.794495,179.683212 739.666992,179.888153 
	C745.657471,180.097214 751.660889,179.934387 758.204407,179.934387 
	C757.153870,179.045303 756.372314,178.383820 755.590698,177.722351 
	C755.694946,177.471771 755.799133,177.221207 755.903320,176.970627 
	C762.182190,178.264648 768.461060,179.558670 774.066956,180.713989 
	C601.260986,180.713989 427.654785,180.713989 254.048569,180.713989 
	C254.044952,180.473541 254.041321,180.233093 254.037704,179.992645 
	C261.430817,179.992645 268.823944,179.992645 276.665588,179.992462 
z"/>
<path fill="#1A253A" opacity="1.000000" stroke="none" 
	d="
M179.000610,338.000000 
	C179.000610,482.253815 179.000610,626.007629 179.000610,769.761475 
	C178.778122,769.761536 178.555618,769.761597 178.333130,769.761719 
	C178.333130,598.916626 178.333130,428.071564 178.333130,257.226501 
	C178.555618,257.224548 178.778122,257.222565 179.000610,257.220581 
	C179.000610,283.980377 179.000610,310.740204 179.000610,338.000000 
z"/>
<path fill="#1A253A" opacity="1.000000" stroke="none" 
	d="
M847.998535,384.000000 
	C847.998901,512.259399 847.998901,640.018799 847.998901,767.778259 
	C847.775940,767.778320 847.552979,767.778320 847.330017,767.778381 
	C847.330017,597.255981 847.330017,426.733612 847.330017,256.211243 
	C847.552734,256.210022 847.775452,256.208801 847.998169,256.207581 
	C847.998169,298.638367 847.998169,341.069183 847.998535,384.000000 
z"/>
<path fill="#141F33" opacity="1.000000" stroke="none" 
	d="
M731.001526,845.002441 
	C743.600281,845.002441 755.699402,845.002441 767.798584,845.002441 
	C767.798950,845.225281 767.799377,845.448120 767.799744,845.670959 
	C749.931885,845.670959 732.064087,845.670959 714.196228,845.670959 
	C714.186768,845.448120 714.177246,845.225281 714.167786,845.002441 
	C719.612488,845.002441 725.057251,845.002441 731.001526,845.002441 
z"/>
<path fill="#141F33" opacity="1.000000" stroke="none" 
	d="
M568.260742,845.000732 
	C583.475525,845.000366 598.226868,845.000366 612.978271,845.000366 
	C612.976807,845.244812 612.975342,845.489319 612.973938,845.733765 
	C596.315002,845.733765 579.656128,845.733765 562.997253,845.733765 
	C562.995178,845.489563 562.993103,845.245300 562.991089,845.001099 
	C564.593201,845.001099 566.195312,845.001099 568.260742,845.000732 
z"/>
<path fill="#141F33" opacity="1.000000" stroke="none" 
	d="
M415.000061,845.002319 
	C422.608765,845.002258 429.717499,845.002258 436.826263,845.002258 
	C436.825836,845.226929 436.825439,845.451660 436.825012,845.676331 
	C422.612579,845.676331 408.400146,845.676331 394.187683,845.676331 
	C394.180359,845.451721 394.173035,845.227051 394.165710,845.002441 
	C400.943848,845.002441 407.721985,845.002441 415.000061,845.002319 
z"/>
<path fill="#141F33" opacity="1.000000" stroke="none" 
	d="
M508.992310,845.001465 
	C513.940491,845.001953 518.390503,845.001953 522.840454,845.001953 
	C522.839050,845.228149 522.837585,845.454346 522.836182,845.680542 
	C510.948517,845.680542 499.060913,845.680542 487.173279,845.680542 
	C487.166290,845.454041 487.159302,845.227539 487.152313,845.001038 
	C494.266266,845.001038 501.380188,845.001038 508.992310,845.001465 
z"/>
<path fill="#141F33" opacity="1.000000" stroke="none" 
	d="
M473.986725,845.028931 
	C474.213470,845.356567 474.059631,845.927795 473.903656,845.928345 
	C462.632690,845.970032 451.361603,845.966309 440.085052,845.006226 
	C451.258392,845.006226 462.431763,845.006226 473.986725,845.028931 
z"/>
<path fill="#141F33" opacity="1.000000" stroke="none" 
	d="
M314.611938,845.002380 
	C323.309204,845.002136 331.580231,845.002136 339.851288,845.002136 
	C339.851013,845.230225 339.850739,845.458374 339.850494,845.686462 
	C330.602356,845.686462 321.354218,845.686462 312.106110,845.686462 
	C312.091309,845.563599 312.076538,845.440735 312.061768,845.317871 
	C312.769745,845.212769 313.477692,845.107727 314.611938,845.002380 
z"/>
<path fill="#141F33" opacity="1.000000" stroke="none" 
	d="
M644.956299,845.997681 
	C638.696045,845.997803 632.927612,845.997803 627.159241,845.997803 
	C627.159729,845.771179 627.160217,845.544495 627.160645,845.317871 
	C636.386047,845.317871 645.611450,845.317871 654.836853,845.317871 
	C654.844238,845.544434 654.851624,845.770996 654.858948,845.997559 
	C651.722046,845.997559 648.585144,845.997559 644.956299,845.997681 
z"/>
<path fill="#141F33" opacity="1.000000" stroke="none" 
	d="
M554.739807,845.997925 
	C547.852478,845.998047 541.428467,845.998047 535.004456,845.998047 
	C535.006531,845.752991 535.008606,845.507996 535.010681,845.262939 
	C543.345947,845.262939 551.681213,845.262939 560.016479,845.262939 
	C560.018372,845.507874 560.020264,845.752808 560.022156,845.997742 
	C558.415833,845.997742 556.809448,845.997742 554.739807,845.997925 
z"/>
<path fill="#111C34" opacity="1.000000" stroke="none" 
	d="
M558.629761,177.940521 
	C556.886353,178.058716 555.428345,178.058716 553.970276,178.058716 
	C553.977966,177.743530 553.985657,177.428329 553.993408,177.113144 
	C555.560852,177.113144 557.128418,177.108444 558.695740,177.123154 
	C558.806274,177.124176 558.989319,177.253693 559.008118,177.349152 
	C559.036865,177.495102 558.951843,177.663467 558.629761,177.940521 
z"/>
<path fill="#111C34" opacity="1.000000" stroke="none" 
	d="
M740.819397,177.328079 
	C742.026245,177.115555 742.963684,177.074448 743.901123,177.033325 
	C743.880981,177.381165 743.860840,177.729004 743.840759,178.076828 
	C742.743835,177.884384 741.646912,177.691925 740.819397,177.328079 
z"/>
<path fill="#111C34" opacity="1.000000" stroke="none" 
	d="
M738.564636,177.474625 
	C738.608093,177.547592 738.424866,177.571625 738.424866,177.571625 
	C738.424866,177.571625 738.521179,177.401657 738.564636,177.474625 
z"/>
<path fill="#000101" opacity="1.000000" stroke="none" 
	d="
M815.999268,495.000000 
	C815.999268,582.158386 816.002441,668.816711 815.997986,755.475098 
	C815.996277,787.719055 790.802124,812.999512 758.681396,812.999756 
	C595.030396,813.000793 431.379425,813.000671 267.728424,812.998840 
	C235.567551,812.998474 210.081009,787.914185 210.033630,755.831299 
	C209.930038,685.698486 210.008713,615.565430 210.008957,545.432434 
	C210.009262,462.631165 209.968094,379.829834 210.043808,297.028625 
	C210.055054,284.724091 209.794296,272.333740 211.087433,260.134460 
	C213.488083,237.487137 233.676804,217.331299 256.104370,214.009933 
	C259.871185,213.452103 263.699982,213.022964 267.500214,213.022003 
	C432.484375,212.980042 597.468506,212.985168 762.452698,213.007980 
	C787.755981,213.011475 811.506836,233.625473 814.983032,258.617493 
	C815.599182,263.047119 815.954041,267.551758 815.957581,272.022125 
	C816.016174,346.181396 815.999268,420.340698 815.999268,495.000000 
M238.755875,802.559204 
	C238.385300,802.584717 238.014709,802.610229 237.644135,802.635742 
	C238.087677,802.765747 238.531219,802.895813 239.258133,803.636108 
	C240.828369,804.434570 242.398605,805.233093 244.423904,806.583618 
	C253.278717,808.388794 262.130463,811.750854 270.988800,811.768250 
	C432.650299,812.085693 594.312561,812.017151 755.974609,811.919861 
	C760.323303,811.917236 764.671265,810.680664 769.747864,810.009216 
	C770.857483,810.009216 771.967163,810.009216 773.076782,810.009216 
	C772.994873,809.552002 772.912903,809.094727 772.830994,808.637512 
	C771.546021,809.083496 770.260986,809.529541 768.191040,809.948914 
	C764.892639,809.965942 761.593506,810.034912 758.295898,809.991089 
	C742.699829,809.783691 727.104431,809.395447 711.508301,809.367126 
	C699.795410,809.345825 688.082520,809.888794 676.368225,809.971680 
	C660.459229,810.084229 644.548828,810.010193 628.639038,809.992432 
	C613.105774,809.975037 597.572571,809.917419 582.039307,809.896667 
	C569.137451,809.879456 556.235596,809.913696 543.333801,809.882202 
	C530.056458,809.849731 516.778931,809.800354 503.502014,809.691284 
	C494.488525,809.617188 485.476318,809.393555 476.462891,809.297913 
	C465.219360,809.178589 453.973969,808.984619 442.731750,809.086182 
	C435.114685,809.154968 427.500427,809.960938 419.887207,809.926880 
	C409.762115,809.881653 399.640961,809.164734 389.514832,809.063293 
	C380.321930,808.971191 371.125183,809.381836 361.929230,809.451965 
	C351.527771,809.531311 341.125214,809.506348 330.723328,809.474121 
	C321.649078,809.445984 312.574585,809.254150 303.501099,809.303467 
	C295.751495,809.345581 288.003693,809.722412 280.254089,809.763794 
	C276.260895,809.785156 272.266693,809.369568 268.270538,809.212402 
	C266.962341,809.160950 265.642944,809.389587 264.335083,809.335388 
	C261.771423,809.229309 259.169769,809.248352 256.660767,808.792358 
	C252.419159,808.021545 248.237366,806.921692 243.737091,805.359131 
	C242.162430,804.566223 240.587769,803.773376 238.755875,802.559204 
M645.384949,729.981995 
	C651.714600,727.075500 655.799561,722.805725 655.780273,715.209351 
	C655.667053,670.715698 655.618835,626.221313 655.774658,581.728027 
	C655.800720,574.296814 652.553772,569.401978 646.362793,566.129883 
	C640.253906,562.901184 634.022217,559.902649 627.820068,556.852722 
	C594.078613,540.260132 560.357300,523.626038 526.542419,507.184357 
	C522.989380,505.456818 521.878479,503.550568 521.424316,499.509857 
	C519.799011,485.049744 523.539124,472.440247 532.338196,461.066345 
	C534.045410,458.859528 535.403809,456.363831 536.753479,453.908142 
	C537.366516,452.792725 537.882019,451.454346 537.899902,450.209320 
	C537.997803,443.378601 538.095947,436.537323 537.764954,429.720490 
	C537.703125,428.447998 535.705750,426.226318 534.572083,426.207336 
	C520.244690,425.967590 505.911133,425.991669 491.581848,426.167358 
	C490.448486,426.181244 488.337830,427.850647 488.363129,428.700592 
	C488.701569,440.061584 485.603241,451.967285 494.150024,462.036530 
	C503.341248,472.864960 505.865326,485.620178 504.584198,499.583008 
	C504.232178,503.419159 503.259064,505.309814 499.827667,506.992950 
	C460.523773,526.272034 421.346588,545.809631 382.029938,565.062439 
	C373.947784,569.020142 370.333618,574.547241 370.407532,583.837097 
	C370.750946,626.994873 370.666931,670.157471 370.454895,713.316956 
	C370.416840,721.068665 373.186554,725.914062 380.164124,729.519043 
	C421.353119,750.799500 462.419739,772.318298 503.428101,793.945435 
	C509.911530,797.364685 515.728333,797.320801 522.151062,793.960144 
	C562.943604,772.616333 603.816956,751.426941 645.384949,729.981995 
M456.739532,385.479309 
	C456.744720,387.978760 456.666290,390.481659 456.770355,392.976990 
	C457.115509,401.253632 462.105896,405.991791 470.457458,405.994659 
	C498.952728,406.004456 527.447998,406.019989 555.943237,405.983704 
	C563.822449,405.973663 568.979614,400.737640 568.994019,392.897247 
	C569.012634,382.782898 568.998474,372.668488 568.998474,362.352905 
	C570.121094,362.279144 570.750427,362.201721 571.379700,362.201660 
	C599.874695,362.198883 628.369751,362.204407 656.864746,362.205719 
	C697.857849,362.207642 738.850952,362.210938 779.844055,362.203979 
	C787.286316,362.202728 790.094421,359.550568 790.458313,352.188263 
	C790.540527,350.526154 790.470215,348.856110 790.456970,347.189789 
	C790.382080,337.749451 787.650330,335.000824 778.371826,335.000946 
	C602.567810,335.003143 426.763794,335.004517 250.959763,335.004761 
	C236.712616,335.004791 235.083771,336.689636 235.339096,351.203796 
	C235.482895,359.378174 238.311630,362.188202 246.522278,362.189941 
	C312.677856,362.203857 378.833435,362.205688 444.989014,362.211090 
	C448.776825,362.211395 452.564667,362.211090 456.742065,362.211090 
	C456.742065,369.915070 456.742065,377.200531 456.739532,385.479309 
M595.947815,281.403564 
	C595.946533,274.072235 595.980713,266.740631 595.932617,259.409607 
	C595.894897,253.666534 593.419983,251.045731 587.879883,251.042908 
	C537.893799,251.017410 487.907654,251.015488 437.921539,251.046524 
	C432.602142,251.049835 430.063263,253.671005 430.029297,259.026520 
	C429.974335,267.690430 430.010895,276.354950 430.013336,285.019196 
	C430.015564,292.778015 431.617065,294.401703 439.293610,294.408661 
	C470.618134,294.437073 501.942688,294.469635 533.267212,294.484283 
	C551.262146,294.492676 569.257141,294.494263 587.251953,294.447906 
	C593.867310,294.430878 595.910950,292.347015 595.952209,285.867523 
	C595.959656,284.701233 595.950317,283.534851 595.947815,281.403564 
M334.476776,285.918671 
	C335.759491,287.215210 336.959381,288.608154 338.338226,289.792816 
	C348.036377,298.124939 362.905792,296.208221 370.821777,285.645996 
	C378.205261,275.794312 375.507111,261.021912 365.082458,254.223282 
	C356.331940,248.516479 344.805267,249.433441 337.172607,256.443512 
	C329.066620,263.888397 327.906769,274.546509 334.476776,285.918671 
M296.347137,290.983215 
	C297.334778,290.095062 298.364960,289.249451 299.303314,288.311981 
	C306.652405,280.969574 308.090637,270.802216 303.052887,261.972961 
	C297.945770,253.022064 287.740784,248.666885 277.559387,251.092987 
	C268.465729,253.259918 261.200348,262.574768 260.992462,272.236755 
	C260.629211,289.119843 279.573730,301.483032 296.347137,290.983215 
M406.387695,331.367004 
	C406.028229,330.880920 405.668762,330.394867 405.309265,329.908783 
	C404.213837,332.949768 402.240173,332.008972 400.160187,331.147034 
	C399.541046,330.890442 398.684265,331.097137 397.959686,331.224396 
	C395.011139,331.742371 392.079437,332.687683 389.126465,332.748871 
	C386.551971,332.802155 383.957733,331.467987 381.371368,331.464874 
	C373.293518,331.455109 365.216217,331.882477 357.136963,331.959198 
	C347.277466,332.052856 337.416138,331.934631 327.555756,331.961700 
	C320.738831,331.980408 313.922333,332.118744 307.105377,332.152069 
	C297.621094,332.198425 288.132904,332.360931 278.653625,332.149384 
	C273.538300,332.035217 268.438385,331.242371 263.330109,330.770996 
	C263.053955,330.745514 262.764832,330.860931 262.389954,330.926910 
	C262.633881,331.532898 262.862427,332.100708 262.962494,332.349304 
	C255.754181,332.349304 248.390137,332.349304 241.026093,332.349304 
	C241.034546,332.808350 241.042999,333.267395 241.051453,333.726440 
	C421.978394,333.726440 602.905334,333.726440 783.832275,333.726440 
	C782.759155,333.080627 781.657654,332.819031 780.550354,332.791626 
	C769.166687,332.509583 757.771179,332.486786 746.401794,331.927460 
	C739.638550,331.594696 732.937378,332.240387 726.050049,331.394562 
	C718.797241,330.503815 711.101501,333.115173 703.697937,330.318787 
	C703.470032,330.232666 703.103088,330.614136 702.789246,330.641083 
	C696.075989,331.218079 689.369324,331.937286 682.643494,332.276031 
	C678.609802,332.479126 674.545776,331.980225 670.495605,331.984802 
	C666.901062,331.988831 663.304688,332.418915 659.712952,332.371185 
	C646.759644,332.199188 633.808533,331.867279 620.855469,331.670959 
	C613.309509,331.556580 605.604370,334.613190 598.249023,330.463562 
	C597.831970,330.228271 596.985291,330.623444 596.389404,330.855682 
	C587.189941,334.441437 577.683655,332.325287 568.336609,332.135559 
	C559.687927,331.959961 551.068970,330.542664 542.416565,330.224060 
	C539.132324,330.103149 535.820374,331.867218 532.468567,332.150299 
	C528.532288,332.482697 524.537476,332.188171 520.570618,332.075043 
	C515.733154,331.937134 510.897461,331.526459 506.062500,331.549194 
	C494.291016,331.604645 482.520721,331.882019 470.749237,331.994507 
	C460.489838,332.092529 450.229126,332.152863 439.969696,332.097229 
	C435.524597,332.073120 430.958649,330.979492 426.667725,331.693817 
	C421.118652,332.617645 415.951965,332.743408 410.894257,329.948120 
	C410.742920,330.994843 410.642944,331.686249 410.401001,333.359741 
	C409.360626,331.374542 408.797913,330.300781 408.134460,329.034821 
	C407.619629,330.006104 407.267303,330.670807 406.387695,331.367004 
M544.500000,214.000259 
	C451.725616,214.000259 358.951233,214.000259 266.176849,214.000259 
	C266.177338,214.227066 266.177826,214.453857 266.178314,214.680664 
	C430.730042,214.680664 595.281738,214.680664 759.833496,214.680664 
	C759.833679,214.453781 759.833862,214.226883 759.834106,214.000000 
	C688.389404,214.000000 616.944702,214.000000 544.500000,214.000259 
M813.002380,380.500000 
	C813.002380,422.606018 813.002380,464.712067 813.002380,506.818085 
	C813.228088,506.816864 813.453735,506.815613 813.679443,506.814362 
	C813.679443,424.600586 813.679443,342.386841 813.679443,260.173065 
	C813.453735,260.173004 813.227966,260.172913 813.002258,260.172852 
	C813.002258,299.948578 813.002258,339.724274 813.002380,380.500000 
M446.444519,364.001007 
	C378.378845,364.001007 310.313171,364.001007 242.247482,364.001007 
	C242.247787,364.398376 242.248093,364.795715 242.248413,365.193085 
	C312.641327,365.193085 383.034210,365.193085 454.067444,365.193085 
	C454.067444,375.703644 454.067444,385.738525 454.067444,395.773407 
	C454.262299,395.762360 454.457123,395.751282 454.651978,395.740204 
	C454.651978,385.333130 454.651978,374.926025 454.651978,364.000000 
	C452.014313,364.000000 449.718140,364.000000 446.444519,364.001007 
M736.500000,364.003815 
	C681.446045,364.003815 626.392029,364.003815 571.303833,364.003815 
	C571.303833,374.899445 571.303833,384.893951 571.303833,394.888458 
	C571.630005,394.892151 571.956116,394.895874 572.282288,394.899597 
	C572.282288,385.023346 572.282288,375.147095 572.282288,364.852295 
	C643.266846,364.852295 713.573608,364.852295 783.880371,364.852295 
	C783.880554,364.569489 783.880798,364.286713 783.880981,364.003906 
	C768.420654,364.003906 752.960327,364.003906 736.500000,364.003815 
M492.500000,249.995270 
	C525.613342,249.995270 558.726685,249.995270 591.839966,249.995270 
	C591.838501,249.767014 591.836975,249.538773 591.835510,249.310516 
	C539.277405,249.310516 486.719238,249.310516 434.161133,249.310516 
	C434.160736,249.538788 434.160339,249.767044 434.159943,249.995316 
	C453.273285,249.995316 472.386658,249.995316 492.500000,249.995270 
M489.500000,295.996918 
	C471.068054,295.996918 452.636139,295.996918 434.204193,295.996918 
	C434.206909,296.221802 434.209595,296.446686 434.212280,296.671570 
	C486.410065,296.671570 538.607788,296.671570 590.805542,296.671570 
	C590.805481,296.446564 590.805359,296.221527 590.805298,295.996521 
	C557.370178,295.996521 523.935120,295.996521 489.500000,295.996918 
M657.994873,606.500000 
	C657.994873,596.732239 657.994873,586.964478 657.994873,577.196716 
	C657.774841,577.202087 657.554871,577.207520 657.334839,577.212891 
	C657.334839,624.742188 657.334839,672.271545 657.334839,719.800842 
	C657.554871,719.800659 657.774902,719.800415 657.994934,719.800171 
	C657.994934,682.366821 657.994934,644.933411 657.994873,606.500000 
M368.007050,611.500000 
	C368.007050,647.284973 368.007050,683.069946 368.007050,718.854919 
	C368.234161,718.853577 368.461273,718.852234 368.688385,718.850952 
	C368.688385,671.613220 368.688385,624.375549 368.688385,577.137817 
	C368.461273,577.137146 368.234161,577.136414 368.007050,577.135681 
	C368.007050,588.257141 368.007050,599.378540 368.007050,611.500000 
M813.002869,604.500000 
	C813.002869,618.944946 813.002869,633.389893 813.002869,647.834839 
	C813.228455,647.831299 813.454102,647.827759 813.679688,647.824280 
	C813.679688,622.605225 813.679688,597.386169 813.679688,572.167114 
	C813.453979,572.166565 813.228333,572.166016 813.002625,572.165466 
	C813.002625,582.610291 813.002625,593.055176 813.002869,604.500000 
M212.996109,652.500549 
	C212.996109,646.393372 212.996109,640.286194 212.996109,634.179016 
	C212.774490,634.187439 212.552887,634.195862 212.331268,634.204346 
	C212.331268,653.401550 212.331268,672.598816 212.331268,691.796021 
	C212.552902,691.795776 212.774536,691.795532 212.996170,691.795227 
	C212.996170,679.030273 212.996170,666.265259 212.996109,652.500549 
M212.993057,629.605225 
	C212.993057,613.102112 212.993057,596.598999 212.993057,580.095886 
	C212.034073,596.700562 212.031555,613.301636 212.071884,629.902588 
	C212.072266,630.058655 212.643311,630.213196 212.993057,629.605225 
M523.490845,425.002625 
	C527.935120,425.002625 532.379395,425.002625 536.823608,425.002625 
	C536.812561,424.777954 536.801453,424.553284 536.790344,424.328613 
	C520.930969,424.328613 505.071625,424.328613 489.212280,424.328613 
	C489.212677,424.553223 489.213104,424.777802 489.213501,425.002411 
	C500.307007,425.002411 511.400513,425.002411 523.490845,425.002625 
M429.003693,279.471649 
	C429.003693,271.360809 429.003693,263.249939 429.003693,255.139099 
	C428.743256,255.145737 428.482788,255.152359 428.222351,255.158997 
	C428.222351,267.076324 428.222351,278.993652 428.222351,290.910980 
	C428.482788,290.906555 428.743195,290.902100 429.003632,290.897675 
	C429.003632,287.417236 429.003632,283.936798 429.003693,279.471649 
M597.002441,272.501038 
	C597.002441,278.285980 597.002441,284.070923 597.002441,289.855865 
	C597.228394,289.847595 597.454407,289.839325 597.680359,289.831055 
	C597.680359,278.606628 597.680359,267.382172 597.680359,256.157745 
	C597.454407,256.156860 597.228394,256.155975 597.002441,256.155090 
	C597.002441,261.270996 597.002441,266.386932 597.002441,272.501038 
M212.996750,278.491455 
	C212.996750,272.699890 212.996750,266.908325 212.996750,261.116760 
	C212.768753,261.125092 212.540771,261.133423 212.312775,261.141754 
	C212.312775,271.373779 212.312775,281.605835 212.312775,291.837860 
	C212.540695,291.839386 212.768616,291.840881 212.996536,291.842407 
	C212.996536,287.723328 212.996536,283.604248 212.996750,278.491455 
M212.997559,573.960693 
	C212.997559,565.702942 212.997559,557.445251 212.997559,549.187500 
	C212.785507,549.194641 212.573441,549.201843 212.361389,549.208984 
	C212.361389,558.384888 212.361389,567.560852 212.361389,576.736816 
	C212.532959,576.736877 212.704529,576.736938 212.876083,576.737000 
	C212.916428,576.091248 212.956772,575.445435 212.997559,573.960693 
M523.995239,486.664001 
	C524.178162,483.767944 524.361084,480.871918 524.544006,477.975861 
	C522.206360,486.389465 523.185181,494.876434 523.994873,503.359680 
	C523.994873,498.112885 523.994873,492.866119 523.995239,486.664001 
M486.560303,427.009979 
	C486.560303,435.654144 486.560303,444.298340 486.560303,452.942505 
	C486.686829,452.944824 486.813354,452.947113 486.939880,452.949432 
	C486.939880,444.515625 486.939880,436.081848 486.560303,427.009979 
M501.999115,500.664917 
	C501.946411,501.597839 501.893707,502.530731 501.840973,503.463654 
	C502.074310,503.471588 502.307648,503.479523 502.540985,503.487457 
	C502.540985,495.691864 502.540985,487.896301 502.540985,480.100708 
	C502.362091,480.095581 502.183197,480.090485 502.004303,480.085358 
	C502.004303,486.667908 502.004303,493.250427 501.999115,500.664917 
M212.995560,432.450958 
	C212.995560,427.693481 212.995560,422.935974 212.995560,418.178497 
	C212.776230,418.190125 212.556915,418.201782 212.337585,418.213409 
	C212.337585,426.071960 212.337585,433.930481 212.337585,441.789032 
	C212.556824,441.787354 212.776062,441.785706 212.995300,441.784058 
	C212.995300,438.997040 212.995300,436.210052 212.995560,432.450958 
z"/>
<path fill="#FDFDFD" opacity="1.000000" stroke="none" 
	d="
M645.024292,730.084351 
	C603.816956,751.426941 562.943604,772.616333 522.151062,793.960144 
	C515.728333,797.320801 509.911530,797.364685 503.428101,793.945435 
	C462.419739,772.318298 421.353119,750.799500 380.164124,729.519043 
	C373.186554,725.914062 370.416840,721.068665 370.454895,713.316956 
	C370.666931,670.157471 370.750946,626.994873 370.407532,583.837097 
	C370.333618,574.547241 373.947784,569.020142 382.029938,565.062439 
	C421.346588,545.809631 460.523773,526.272034 499.827667,506.992950 
	C503.259064,505.309814 504.232178,503.419159 504.584198,499.583008 
	C505.865326,485.620178 503.341248,472.864960 494.150024,462.036530 
	C485.603241,451.967285 488.701569,440.061584 488.363129,428.700592 
	C488.337830,427.850647 490.448486,426.181244 491.581848,426.167358 
	C505.911133,425.991669 520.244690,425.967590 534.572083,426.207336 
	C535.705750,426.226318 537.703125,428.447998 537.764954,429.720490 
	C538.095947,436.537323 537.997803,443.378601 537.899902,450.209320 
	C537.882019,451.454346 537.366516,452.792725 536.753479,453.908142 
	C535.403809,456.363831 534.045410,458.859528 532.338196,461.066345 
	C523.539124,472.440247 519.799011,485.049744 521.424316,499.509857 
	C521.878479,503.550568 522.989380,505.456818 526.542419,507.184357 
	C560.357300,523.626038 594.078613,540.260132 627.820068,556.852722 
	C634.022217,559.902649 640.253906,562.901184 646.362793,566.129883 
	C652.553772,569.401978 655.800720,574.296814 655.774658,581.728027 
	C655.618835,626.221313 655.667053,670.715698 655.780273,715.209351 
	C655.799561,722.805725 651.714600,727.075500 645.024292,730.084351 
M631.998413,662.500000 
	C631.998413,640.259338 631.998413,618.018677 631.998413,595.874268 
	C631.398499,595.746643 631.196533,595.631531 631.081848,595.689453 
	C596.565735,613.097839 562.038086,630.483765 527.610046,648.064758 
	C526.243103,648.762878 525.080444,651.315063 525.073792,653.008301 
	C524.931641,689.153137 524.968628,725.298706 524.970764,761.444092 
	C524.970886,762.888916 524.970825,764.333679 524.970825,766.469971 
	C561.037720,747.714539 596.539307,729.253052 631.998413,710.813660 
	C631.998413,694.807861 631.998413,679.153931 631.998413,662.500000 
M487.905518,759.561096 
	C492.237244,761.834290 496.568939,764.107544 501.222992,766.549988 
	C501.381927,765.486511 501.505676,765.043701 501.506073,764.600769 
	C501.537994,727.452881 501.510468,690.304688 501.675140,653.157471 
	C501.688751,650.085205 500.510681,648.914917 498.022461,647.669250 
	C464.398865,630.837036 430.833038,613.889587 397.241730,596.992798 
	C396.317078,596.527710 395.267792,596.310242 393.999115,595.884094 
	C393.999115,633.652832 393.964264,670.963928 394.132812,708.273987 
	C394.139221,709.693237 395.802521,711.694763 397.212646,712.431030 
	C427.194824,728.084351 457.251556,743.594849 487.905518,759.561096 
M576.584778,556.985779 
	C556.405640,547.080505 536.248352,537.129883 516.000977,527.366089 
	C514.559448,526.671021 512.176514,526.764954 510.702057,527.472717 
	C479.784332,542.315369 448.933136,557.296753 418.073517,572.260315 
	C415.086304,573.708740 412.129425,575.219666 408.525452,577.017334 
	C443.197784,594.228699 477.078888,611.075989 511.024963,627.791260 
	C512.354675,628.446045 514.577637,628.396057 515.926514,627.737183 
	C538.949219,616.491699 561.928223,605.155457 584.853027,593.711243 
	C595.524597,588.383972 606.060120,582.783997 617.326111,576.961975 
	C603.492859,570.117615 590.406006,563.642517 576.584778,556.985779 
z"/>
<path fill="#FFFFFF" opacity="1.000000" stroke="none" 
	d="
M456.740784,384.982666 
	C456.742065,377.200531 456.742065,369.915070 456.742065,362.211090 
	C452.564667,362.211090 448.776825,362.211395 444.989014,362.211090 
	C378.833435,362.205688 312.677856,362.203857 246.522278,362.189941 
	C238.311630,362.188202 235.482895,359.378174 235.339096,351.203796 
	C235.083771,336.689636 236.712616,335.004791 250.959763,335.004761 
	C426.763794,335.004517 602.567810,335.003143 778.371826,335.000946 
	C787.650330,335.000824 790.382080,337.749451 790.456970,347.189789 
	C790.470215,348.856110 790.540527,350.526154 790.458313,352.188263 
	C790.094421,359.550568 787.286316,362.202728 779.844055,362.203979 
	C738.850952,362.210938 697.857849,362.207642 656.864746,362.205719 
	C628.369751,362.204407 599.874695,362.198883 571.379700,362.201660 
	C570.750427,362.201721 570.121094,362.279144 568.998474,362.352905 
	C568.998474,372.668488 569.012634,382.782898 568.994019,392.897247 
	C568.979614,400.737640 563.822449,405.973663 555.943237,405.983704 
	C527.447998,406.019989 498.952728,406.004456 470.457458,405.994659 
	C462.105896,405.991791 457.115509,401.253632 456.770355,392.976990 
	C456.666290,390.481659 456.744720,387.978760 456.740784,384.982666 
z"/>
<path fill="#FEFEFE" opacity="1.000000" stroke="none" 
	d="
M595.948303,281.886047 
	C595.950317,283.534851 595.959656,284.701233 595.952209,285.867523 
	C595.910950,292.347015 593.867310,294.430878 587.251953,294.447906 
	C569.257141,294.494263 551.262146,294.492676 533.267212,294.484283 
	C501.942688,294.469635 470.618134,294.437073 439.293610,294.408661 
	C431.617065,294.401703 430.015564,292.778015 430.013336,285.019196 
	C430.010895,276.354950 429.974335,267.690430 430.029297,259.026520 
	C430.063263,253.671005 432.602142,251.049835 437.921539,251.046524 
	C487.907654,251.015488 537.893799,251.017410 587.879883,251.042908 
	C593.419983,251.045731 595.894897,253.666534 595.932617,259.409607 
	C595.980713,266.740631 595.946533,274.072235 595.948303,281.886047 
z"/>
<path fill="#FDFDFD" opacity="1.000000" stroke="none" 
	d="
M334.252411,285.629547 
	C327.906769,274.546509 329.066620,263.888397 337.172607,256.443512 
	C344.805267,249.433441 356.331940,248.516479 365.082458,254.223282 
	C375.507111,261.021912 378.205261,275.794312 370.821777,285.645996 
	C362.905792,296.208221 348.036377,298.124939 338.338226,289.792816 
	C336.959381,288.608154 335.759491,287.215210 334.252411,285.629547 
z"/>
<path fill="#FDFDFD" opacity="1.000000" stroke="none" 
	d="
M296.018555,291.152679 
	C279.573730,301.483032 260.629211,289.119843 260.992462,272.236755 
	C261.200348,262.574768 268.465729,253.259918 277.559387,251.092987 
	C287.740784,248.666885 297.945770,253.022064 303.052887,261.972961 
	C308.090637,270.802216 306.652405,280.969574 299.303314,288.311981 
	C298.364960,289.249451 297.334778,290.095062 296.018555,291.152679 
z"/>
<path fill="#0F1A35" opacity="1.000000" stroke="none" 
	d="
M244.030426,805.960205 
	C248.237366,806.921692 252.419159,808.021545 256.660767,808.792358 
	C259.169769,809.248352 261.771423,809.229309 264.335083,809.335388 
	C265.642944,809.389587 266.962341,809.160950 268.270538,809.212402 
	C272.266693,809.369568 276.260895,809.785156 280.254089,809.763794 
	C288.003693,809.722412 295.751495,809.345581 303.501099,809.303467 
	C312.574585,809.254150 321.649078,809.445984 330.723328,809.474121 
	C341.125214,809.506348 351.527771,809.531311 361.929230,809.451965 
	C371.125183,809.381836 380.321930,808.971191 389.514832,809.063293 
	C399.640961,809.164734 409.762115,809.881653 419.887207,809.926880 
	C427.500427,809.960938 435.114685,809.154968 442.731750,809.086182 
	C453.973969,808.984619 465.219360,809.178589 476.462891,809.297913 
	C485.476318,809.393555 494.488525,809.617188 503.502014,809.691284 
	C516.778931,809.800354 530.056458,809.849731 543.333801,809.882202 
	C556.235596,809.913696 569.137451,809.879456 582.039307,809.896667 
	C597.572571,809.917419 613.105774,809.975037 628.639038,809.992432 
	C644.548828,810.010193 660.459229,810.084229 676.368225,809.971680 
	C688.082520,809.888794 699.795410,809.345825 711.508301,809.367126 
	C727.104431,809.395447 742.699829,809.783691 758.295898,809.991089 
	C761.593506,810.034912 764.892639,809.965942 768.594482,809.973389 
	C768.997986,809.997864 769.019531,810.019531 769.019531,810.019531 
	C764.671265,810.680664 760.323303,811.917236 755.974609,811.919861 
	C594.312561,812.017151 432.650299,812.085693 270.988800,811.768250 
	C262.130463,811.750854 253.278717,808.388794 244.212555,806.290405 
	C244.001221,805.997253 244.030441,805.960144 244.030426,805.960205 
z"/>
<path fill="#111D36" opacity="1.000000" stroke="none" 
	d="
M406.651337,331.351257 
	C407.267303,330.670807 407.619629,330.006104 408.134460,329.034821 
	C408.797913,330.300781 409.360626,331.374542 410.401001,333.359741 
	C410.642944,331.686249 410.742920,330.994843 410.894257,329.948120 
	C415.951965,332.743408 421.118652,332.617645 426.667725,331.693817 
	C430.958649,330.979492 435.524597,332.073120 439.969696,332.097229 
	C450.229126,332.152863 460.489838,332.092529 470.749237,331.994507 
	C482.520721,331.882019 494.291016,331.604645 506.062500,331.549194 
	C510.897461,331.526459 515.733154,331.937134 520.570618,332.075043 
	C524.537476,332.188171 528.532288,332.482697 532.468567,332.150299 
	C535.820374,331.867218 539.132324,330.103149 542.416565,330.224060 
	C551.068970,330.542664 559.687927,331.959961 568.336609,332.135559 
	C577.683655,332.325287 587.189941,334.441437 596.389404,330.855682 
	C596.985291,330.623444 597.831970,330.228271 598.249023,330.463562 
	C605.604370,334.613190 613.309509,331.556580 620.855469,331.670959 
	C633.808533,331.867279 646.759644,332.199188 659.712952,332.371185 
	C663.304688,332.418915 666.901062,331.988831 670.495605,331.984802 
	C674.545776,331.980225 678.609802,332.479126 682.643494,332.276031 
	C689.369324,331.937286 696.075989,331.218079 702.789246,330.641083 
	C703.103088,330.614136 703.470032,330.232666 703.697937,330.318787 
	C711.101501,333.115173 718.797241,330.503815 726.050049,331.394562 
	C732.937378,332.240387 739.638550,331.594696 746.401794,331.927460 
	C757.771179,332.486786 769.166687,332.509583 780.550354,332.791626 
	C781.657654,332.819031 782.759155,333.080627 783.832275,333.726440 
	C602.905334,333.726440 421.978394,333.726440 241.051453,333.726440 
	C241.042999,333.267395 241.034546,332.808350 241.026093,332.349304 
	C248.390137,332.349304 255.754181,332.349304 262.962494,332.349304 
	C262.862427,332.100708 262.633881,331.532898 262.389954,330.926910 
	C262.764832,330.860931 263.053955,330.745514 263.330109,330.770996 
	C268.438385,331.242371 273.538300,332.035217 278.653625,332.149384 
	C288.132904,332.360931 297.621094,332.198425 307.105377,332.152069 
	C313.922333,332.118744 320.738831,331.980408 327.555756,331.961700 
	C337.416138,331.934631 347.277466,332.052856 357.136963,331.959198 
	C365.216217,331.882477 373.293518,331.455109 381.371368,331.464874 
	C383.957733,331.467987 386.551971,332.802155 389.126465,332.748871 
	C392.079437,332.687683 395.011139,331.742371 397.959686,331.224396 
	C398.684265,331.097137 399.541046,330.890442 400.160187,331.147034 
	C402.240173,332.008972 404.213837,332.949768 405.309265,329.908783 
	C405.668762,330.394867 406.028229,330.880920 406.651337,331.351257 
z"/>
<path fill="#18233B" opacity="1.000000" stroke="none" 
	d="
M545.000000,214.000122 
	C616.944702,214.000000 688.389404,214.000000 759.834106,214.000000 
	C759.833862,214.226883 759.833679,214.453781 759.833496,214.680664 
	C595.281738,214.680664 430.730042,214.680664 266.178314,214.680664 
	C266.177826,214.453857 266.177338,214.227066 266.176849,214.000259 
	C358.951233,214.000259 451.725616,214.000259 545.000000,214.000122 
z"/>
<path fill="#141F33" opacity="1.000000" stroke="none" 
	d="
M813.002319,380.000000 
	C813.002258,339.724274 813.002258,299.948578 813.002258,260.172852 
	C813.227966,260.172913 813.453735,260.173004 813.679443,260.173065 
	C813.679443,342.386841 813.679443,424.600586 813.679443,506.814362 
	C813.453735,506.815613 813.228088,506.816864 813.002380,506.818085 
	C813.002380,464.712067 813.002380,422.606018 813.002319,380.000000 
z"/>
<path fill="#152238" opacity="1.000000" stroke="none" 
	d="
M446.933228,364.000488 
	C449.718140,364.000000 452.014313,364.000000 454.651978,364.000000 
	C454.651978,374.926025 454.651978,385.333130 454.651978,395.740204 
	C454.457123,395.751282 454.262299,395.762360 454.067444,395.773407 
	C454.067444,385.738525 454.067444,375.703644 454.067444,365.193085 
	C383.034210,365.193085 312.641327,365.193085 242.248413,365.193085 
	C242.248093,364.795715 242.247787,364.398376 242.247482,364.001007 
	C310.313171,364.001007 378.378845,364.001007 446.933228,364.000488 
z"/>
<path fill="#152238" opacity="1.000000" stroke="none" 
	d="
M737.000000,364.003845 
	C752.960327,364.003906 768.420654,364.003906 783.880981,364.003906 
	C783.880798,364.286713 783.880554,364.569489 783.880371,364.852295 
	C713.573608,364.852295 643.266846,364.852295 572.282288,364.852295 
	C572.282288,375.147095 572.282288,385.023346 572.282288,394.899597 
	C571.956116,394.895874 571.630005,394.892151 571.303833,394.888458 
	C571.303833,384.893951 571.303833,374.899445 571.303833,364.003815 
	C626.392029,364.003815 681.446045,364.003815 737.000000,364.003845 
z"/>
<path fill="#18233B" opacity="1.000000" stroke="none" 
	d="
M492.000000,249.995300 
	C472.386658,249.995316 453.273285,249.995316 434.159943,249.995316 
	C434.160339,249.767044 434.160736,249.538788 434.161133,249.310516 
	C486.719238,249.310516 539.277405,249.310516 591.835510,249.310516 
	C591.836975,249.538773 591.838501,249.767014 591.839966,249.995270 
	C558.726685,249.995270 525.613342,249.995270 492.000000,249.995300 
z"/>
<path fill="#1A253A" opacity="1.000000" stroke="none" 
	d="
M490.000000,295.996704 
	C523.935120,295.996521 557.370178,295.996521 590.805298,295.996521 
	C590.805359,296.221527 590.805481,296.446564 590.805542,296.671570 
	C538.607788,296.671570 486.410065,296.671570 434.212280,296.671570 
	C434.209595,296.446686 434.206909,296.221802 434.204193,295.996918 
	C452.636139,295.996918 471.068054,295.996918 490.000000,295.996704 
z"/>
<path fill="#152238" opacity="1.000000" stroke="none" 
	d="
M657.994873,607.000000 
	C657.994934,644.933411 657.994934,682.366821 657.994934,719.800171 
	C657.774902,719.800415 657.554871,719.800659 657.334839,719.800842 
	C657.334839,672.271545 657.334839,624.742188 657.334839,577.212891 
	C657.554871,577.207520 657.774841,577.202087 657.994873,577.196716 
	C657.994873,586.964478 657.994873,596.732239 657.994873,607.000000 
z"/>
<path fill="#1A253A" opacity="1.000000" stroke="none" 
	d="
M368.007050,611.000000 
	C368.007050,599.378540 368.007050,588.257141 368.007050,577.135681 
	C368.234161,577.136414 368.461273,577.137146 368.688385,577.137817 
	C368.688385,624.375549 368.688385,671.613220 368.688385,718.850952 
	C368.461273,718.852234 368.234161,718.853577 368.007050,718.854919 
	C368.007050,683.069946 368.007050,647.284973 368.007050,611.000000 
z"/>
<path fill="#141F33" opacity="1.000000" stroke="none" 
	d="
M813.002747,604.000000 
	C813.002625,593.055176 813.002625,582.610291 813.002625,572.165466 
	C813.228333,572.166016 813.453979,572.166565 813.679688,572.167114 
	C813.679688,597.386169 813.679688,622.605225 813.679688,647.824280 
	C813.454102,647.827759 813.228455,647.831299 813.002869,647.834839 
	C813.002869,633.389893 813.002869,618.944946 813.002747,604.000000 
z"/>
<path fill="#141F33" opacity="1.000000" stroke="none" 
	d="
M212.996140,653.000366 
	C212.996170,666.265259 212.996170,679.030273 212.996170,691.795227 
	C212.774536,691.795532 212.552902,691.795776 212.331268,691.796021 
	C212.331268,672.598816 212.331268,653.401550 212.331268,634.204346 
	C212.552887,634.195862 212.774490,634.187439 212.996109,634.179016 
	C212.996109,640.286194 212.996109,646.393372 212.996140,653.000366 
z"/>
<path fill="#141F33" opacity="1.000000" stroke="none" 
	d="
M212.970490,629.986816 
	C212.643311,630.213196 212.072266,630.058655 212.071884,629.902588 
	C212.031555,613.301636 212.034073,596.700562 212.993057,580.095886 
	C212.993057,596.598999 212.993057,613.102112 212.970490,629.986816 
z"/>
<path fill="#1A253A" opacity="1.000000" stroke="none" 
	d="
M522.992432,425.002502 
	C511.400513,425.002411 500.307007,425.002411 489.213501,425.002411 
	C489.213104,424.777802 489.212677,424.553223 489.212280,424.328613 
	C505.071625,424.328613 520.930969,424.328613 536.790344,424.328613 
	C536.801453,424.553284 536.812561,424.777954 536.823608,425.002625 
	C532.379395,425.002625 527.935120,425.002625 522.992432,425.002502 
z"/>
<path fill="#152238" opacity="1.000000" stroke="none" 
	d="
M429.003662,279.963989 
	C429.003632,283.936798 429.003632,287.417236 429.003632,290.897675 
	C428.743195,290.902100 428.482788,290.906555 428.222351,290.910980 
	C428.222351,278.993652 428.222351,267.076324 428.222351,255.158997 
	C428.482788,255.152359 428.743256,255.145737 429.003693,255.139099 
	C429.003693,263.249939 429.003693,271.360809 429.003662,279.963989 
z"/>
<path fill="#1A253A" opacity="1.000000" stroke="none" 
	d="
M597.002441,272.001953 
	C597.002441,266.386932 597.002441,261.270996 597.002441,256.155090 
	C597.228394,256.155975 597.454407,256.156860 597.680359,256.157745 
	C597.680359,267.382172 597.680359,278.606628 597.680359,289.831055 
	C597.454407,289.839325 597.228394,289.847595 597.002441,289.855865 
	C597.002441,284.070923 597.002441,278.285980 597.002441,272.001953 
z"/>
<path fill="#141F33" opacity="1.000000" stroke="none" 
	d="
M212.996643,278.988312 
	C212.996536,283.604248 212.996536,287.723328 212.996536,291.842407 
	C212.768616,291.840881 212.540695,291.839386 212.312775,291.837860 
	C212.312775,281.605835 212.312775,271.373779 212.312775,261.141754 
	C212.540771,261.133423 212.768753,261.125092 212.996750,261.116760 
	C212.996750,266.908325 212.996750,272.699890 212.996643,278.988312 
z"/>
<path fill="#141F33" opacity="1.000000" stroke="none" 
	d="
M212.997345,574.380188 
	C212.956772,575.445435 212.916428,576.091248 212.876083,576.737000 
	C212.704529,576.736938 212.532959,576.736877 212.361389,576.736816 
	C212.361389,567.560852 212.361389,558.384888 212.361389,549.208984 
	C212.573441,549.201843 212.785507,549.194641 212.997559,549.187500 
	C212.997559,557.445251 212.997559,565.702942 212.997345,574.380188 
z"/>
<path fill="#1A253A" opacity="1.000000" stroke="none" 
	d="
M523.995056,487.141663 
	C523.994873,492.866119 523.994873,498.112885 523.994873,503.359680 
	C523.185181,494.876434 522.206360,486.389465 524.544006,477.975861 
	C524.361084,480.871918 524.178162,483.767944 523.995056,487.141663 
z"/>
<path fill="#1A253A" opacity="1.000000" stroke="none" 
	d="
M486.750092,427.329041 
	C486.939880,436.081848 486.939880,444.515625 486.939880,452.949432 
	C486.813354,452.947113 486.686829,452.944824 486.560303,452.942505 
	C486.560303,444.298340 486.560303,435.654144 486.750092,427.329041 
z"/>
<path fill="#1A253A" opacity="1.000000" stroke="none" 
	d="
M502.001709,500.248932 
	C502.004303,493.250427 502.004303,486.667908 502.004303,480.085358 
	C502.183197,480.090485 502.362091,480.095581 502.540985,480.100708 
	C502.540985,487.896301 502.540985,495.691864 502.540985,503.487457 
	C502.307648,503.479523 502.074310,503.471588 501.840973,503.463654 
	C501.893707,502.530731 501.946411,501.597839 502.001709,500.248932 
z"/>
<path fill="#141F33" opacity="1.000000" stroke="none" 
	d="
M212.995422,432.937012 
	C212.995300,436.210052 212.995300,438.997040 212.995300,441.784058 
	C212.776062,441.785706 212.556824,441.787354 212.337585,441.789032 
	C212.337585,433.930481 212.337585,426.071960 212.337585,418.213409 
	C212.556915,418.201782 212.776230,418.190125 212.995560,418.178497 
	C212.995560,422.935974 212.995560,427.693481 212.995422,432.937012 
z"/>
<path fill="#0F1A35" opacity="1.000000" stroke="none" 
	d="
M768.987000,809.986694 
	C770.260986,809.529541 771.546021,809.083496 772.830994,808.637512 
	C772.912903,809.094727 772.994873,809.552002 773.076782,810.009216 
	C771.967163,810.009216 770.857483,810.009216 769.383667,810.014404 
	C769.019531,810.019531 768.997986,809.997864 768.987000,809.986694 
z"/>
<path fill="#0F1A35" opacity="1.000000" stroke="none" 
	d="
M243.985016,806.014404 
	C242.398605,805.233093 240.828369,804.434570 239.127106,803.320190 
	C238.996078,803.004211 239.013092,802.980469 239.013092,802.980469 
	C240.587769,803.773376 242.162430,804.566223 243.883759,805.659668 
	C244.030441,805.960144 244.001221,805.997253 243.985016,806.014404 
z"/>
<path fill="#0F1A35" opacity="1.000000" stroke="none" 
	d="
M238.985413,803.015015 
	C238.531219,802.895813 238.087677,802.765747 237.644135,802.635742 
	C238.014709,802.610229 238.385300,802.584717 238.884491,802.769836 
	C239.013092,802.980469 238.996078,803.004211 238.985413,803.015015 
z"/>
<path fill="#010102" opacity="1.000000" stroke="none" 
	d="
M631.998413,663.000000 
	C631.998413,679.153931 631.998413,694.807861 631.998413,710.813660 
	C596.539307,729.253052 561.037720,747.714539 524.970825,766.469971 
	C524.970825,764.333679 524.970886,762.888916 524.970764,761.444092 
	C524.968628,725.298706 524.931641,689.153137 525.073792,653.008301 
	C525.080444,651.315063 526.243103,648.762878 527.610046,648.064758 
	C562.038086,630.483765 596.565735,613.097839 631.081848,595.689453 
	C631.196533,595.631531 631.398499,595.746643 631.998413,595.874268 
	C631.998413,618.018677 631.998413,640.259338 631.998413,663.000000 
M526.997559,742.499390 
	C526.997559,712.032776 526.997559,681.566162 526.997559,651.099548 
	C524.501343,667.549866 525.725952,761.889465 526.997559,762.511414 
	C526.997559,756.453186 526.997559,749.976074 526.997559,742.499390 
z"/>
<path fill="#020203" opacity="1.000000" stroke="none" 
	d="
M487.599609,759.347168 
	C457.251556,743.594849 427.194824,728.084351 397.212646,712.431030 
	C395.802521,711.694763 394.139221,709.693237 394.132812,708.273987 
	C393.964264,670.963928 393.999115,633.652832 393.999115,595.884094 
	C395.267792,596.310242 396.317078,596.527710 397.241730,596.992798 
	C430.833038,613.889587 464.398865,630.837036 498.022461,647.669250 
	C500.510681,648.914917 501.688751,650.085205 501.675140,653.157471 
	C501.510468,690.304688 501.537994,727.452881 501.506073,764.600769 
	C501.505676,765.043701 501.381927,765.486511 501.222992,766.549988 
	C496.568939,764.107544 492.237244,761.834290 487.599609,759.347168 
M499.988007,761.626343 
	C499.988007,724.661560 499.988007,687.696716 499.988007,650.731934 
	C499.661194,650.736389 499.334351,650.740784 499.007538,650.745239 
	C499.007538,653.368835 499.007599,655.992371 499.007538,658.615967 
	C499.006714,691.893066 498.995148,725.170227 499.044647,758.447266 
	C499.046600,759.763733 499.629974,761.079285 499.988007,761.626343 
M396.003662,672.500000 
	C396.003662,683.935120 396.003662,695.370300 396.003662,706.805420 
	C396.462402,706.802002 396.921143,706.798645 397.379883,706.795227 
	C397.379883,670.812866 397.379883,634.830566 397.379883,598.840576 
	C397.108612,598.840576 396.520538,598.838318 396.520508,598.840881 
	C396.322174,623.060364 396.162537,647.280212 396.003662,672.500000 
z"/>
<path fill="#010203" opacity="1.000000" stroke="none" 
	d="
M576.951965,557.076599 
	C590.406006,563.642517 603.492859,570.117615 617.326111,576.961975 
	C606.060120,582.783997 595.524597,588.383972 584.853027,593.711243 
	C561.928223,605.155457 538.949219,616.491699 515.926514,627.737183 
	C514.577637,628.396057 512.354675,628.446045 511.024963,627.791260 
	C477.078888,611.075989 443.197784,594.228699 408.525452,577.017334 
	C412.129425,575.219666 415.086304,573.708740 418.073517,572.260315 
	C448.933136,557.296753 479.784332,542.315369 510.702057,527.472717 
	C512.176514,526.764954 514.559448,526.671021 516.000977,527.366089 
	C536.248352,537.129883 556.405640,547.080505 576.951965,557.076599 
z"/>
<path fill="#152238" opacity="1.000000" stroke="none" 
	d="
M526.997559,742.999207 
	C526.997559,749.976074 526.997559,756.453186 526.997559,762.511414 
	C525.725952,761.889465 524.501343,667.549866 526.997559,651.099548 
	C526.997559,681.566162 526.997559,712.032776 526.997559,742.999207 
z"/>
<path fill="#152238" opacity="1.000000" stroke="none" 
	d="
M499.965240,762.010803 
	C499.629974,761.079285 499.046600,759.763733 499.044647,758.447266 
	C498.995148,725.170227 499.006714,691.893066 499.007538,658.615967 
	C499.007599,655.992371 499.007538,653.368835 499.007538,650.745239 
	C499.334351,650.740784 499.661194,650.736389 499.988007,650.731934 
	C499.988007,687.696716 499.988007,724.661560 499.965240,762.010803 
z"/>
<path fill="#141F33" opacity="1.000000" stroke="none" 
	d="
M396.003265,672.000000 
	C396.162537,647.280212 396.322174,623.060364 396.520508,598.840881 
	C396.520538,598.838318 397.108612,598.840576 397.379883,598.840576 
	C397.379883,634.830566 397.379883,670.812866 397.379883,706.795227 
	C396.921143,706.798645 396.462402,706.802002 396.003662,706.805420 
	C396.003662,695.370300 396.003662,683.935120 396.003265,672.000000 
z"/>
</svg>